<svg width="146" height="44" viewBox="0 0 146 44" fill="none" xmlns="http://www.w3.org/2000/svg">
<path d="M20.2403 30.4224C20.2403 29.0203 19.5465 27.8964 18.1686 27.0411C16.7808 26.1858 15.0897 25.4696 13.0963 24.8928C11.1023 24.326 9.1184 23.6498 7.14402 22.8739C5.16986 22.0983 3.4792 20.8156 2.09116 19.0253C0.693792 17.235 0 14.9775 0 12.2327C0 8.86116 1.32898 5.96721 3.99738 3.58036C6.65536 1.19352 10.1153 0 14.3764 0C16.0477 0 17.67 0.199076 19.2434 0.596558C20.8071 0.994473 22.0749 1.48811 23.0943 1.99891C28.2752 4.59502 25.9333 8.17082 22.5859 11.3376C22.3612 11.0591 22.0388 10.7309 21.6283 10.3232C21.2176 9.92533 20.3577 9.39823 19.0383 8.74199C17.7188 8.07554 16.3703 7.7473 14.9727 7.7473C13.2916 7.7473 11.9429 8.18493 10.9265 9.06021C9.90033 9.93506 9.39192 10.9895 9.39192 12.2327C9.39192 13.6348 10.0859 14.7589 11.464 15.604C12.8518 16.4494 14.5329 17.1655 16.5069 17.7423C18.4812 18.3289 20.4654 19.0055 22.4589 19.7812C24.4528 20.557 26.1532 21.8398 27.541 23.6298C28.9386 25.4199 29.6326 27.6776 29.6326 30.4224C29.6326 34.2811 28.2544 37.444 25.4983 39.8903C22.7326 42.3369 18.9308 43.5601 14.0831 43.5601C12.1773 43.5601 10.3304 43.3215 8.54161 42.8442C6.76304 42.3668 5.30879 41.7594 4.13393 41.1435C-1.57712 38.1491 -0.426571 34.9421 3.8311 31.3175C4.10463 31.6357 4.47605 32.0336 4.96471 32.531C5.45337 33.0281 6.53835 33.6945 8.21924 34.5298C9.90034 35.3654 11.6498 35.7831 13.487 35.7831C15.6079 35.7831 17.2595 35.2758 18.4519 34.2613C19.6444 33.2569 20.2403 31.9739 20.2403 30.4224Z" fill="#FEFEFE"/>
<path d="M60.4853 30.7109H39.6777C39.9808 32.3021 40.8116 33.6448 42.1603 34.7485C43.5186 35.8428 45.2292 36.3897 47.2913 36.3897C48.7768 36.3897 50.1549 36.0911 51.4253 35.5046C53.1789 34.681 53.6988 34.1558 54.934 32.8093C58.4201 36.7487 59.0497 38.8247 54.4746 41.5015C53.618 42.0028 52.4612 42.3668 51.054 42.7148C49.6564 43.0628 48.2098 43.2421 46.7145 43.2421C42.5024 43.2421 38.896 41.7503 35.925 38.7665C32.944 35.7831 31.4585 32.2029 31.4585 28.0258C31.4585 23.8487 32.9245 20.2783 35.8662 17.2949C38.8081 14.3113 42.3264 12.8193 46.4312 12.8193C50.5361 12.8193 53.9469 14.2117 56.6835 16.9964C59.4103 19.7912 60.7786 23.2719 60.7786 27.449L60.4853 30.7109ZM50.6826 21.2131C49.5295 20.1988 48.1123 19.6915 46.4312 19.6915C44.7501 19.6915 43.3235 20.1891 42.1503 21.1835C40.9779 22.168 40.1471 23.461 39.6777 25.052H52.8717C52.5688 23.5005 51.836 22.2177 50.6826 21.2131Z" fill="#FEFEFE"/>
<path d="M70.5309 7.74581V16.9866C70.7653 16.6782 71.0779 16.2902 71.4884 15.833C71.8992 15.3754 72.8177 14.7589 74.2448 13.9831C75.6619 13.2074 77.1572 12.8193 78.7208 12.8193C82.0044 12.8193 84.6826 13.9733 86.7545 16.2902C88.8263 18.5976 89.8625 21.7106 89.8625 25.639V42.6551H81.9556V26.5438C81.9556 24.7535 81.4376 23.3116 80.3919 22.2177C79.356 21.1136 78.017 20.5668 76.3752 20.5668C74.5769 20.5668 73.1598 21.1633 72.1043 22.3568C71.0584 23.5604 70.5309 25.251 70.5309 27.449V42.6551H62.6045C62.6045 28.7285 62.6045 14.8019 62.6045 0.875305C70.2908 0.875305 70.5309 0.975386 70.5309 7.74581Z" fill="#FEFEFE"/>
<path d="M109.29 39.6815C109.065 39.95 108.743 40.288 108.332 40.6859C107.922 41.0839 107.033 41.6109 105.654 42.2574C104.286 42.9137 102.85 43.2421 101.364 43.2421C98.5005 43.2421 96.1744 42.4266 94.3761 40.8056C92.578 39.1842 91.6884 37.215 91.6884 34.9078C91.6884 32.511 92.441 30.5221 93.9463 28.9306C95.4511 27.3396 97.5327 26.2952 100.191 25.8179L109.29 24.157C109.29 22.9339 108.86 21.9292 107.981 21.1536C107.101 20.3777 105.879 19.99 104.315 19.99C103.016 19.99 101.833 20.2388 100.758 20.7259C99.6929 21.2231 98.9403 21.7304 98.5005 22.2577C98.2821 22.493 98.0639 22.7283 97.8455 22.9636C92.3568 18.7826 95.3252 15.1627 100.787 13.446C102.126 13.0284 103.494 12.8193 104.882 12.8193C108.508 12.8193 111.47 13.9232 113.766 16.1311C116.053 18.3289 117.197 21.1039 117.197 24.4454C117.197 28.4643 117.197 32.4832 117.197 36.5023C117.197 38.5531 117.197 40.6041 117.197 42.6551C113.638 42.6551 109.29 43.6828 109.29 39.6815ZM103.426 36.6781C105.215 36.6781 106.642 36.1013 107.707 34.9475C108.762 33.794 109.29 32.1828 109.29 30.1242V29.2191L102.85 30.4224C100.7 30.7706 99.6148 31.8645 99.6148 33.7145C99.6148 35.6935 100.885 36.6781 103.426 36.6781Z" fill="#FEFEFE"/>
<path d="M135.939 32.809C135.939 33.7243 136.271 34.4999 136.925 35.1366C137.59 35.7829 138.421 36.1014 139.437 36.1014C139.955 36.1014 140.454 36.0417 140.942 35.9422C141.421 35.8328 141.793 35.7234 142.037 35.604L142.389 35.4846V42.3669C140.815 42.9634 139.056 43.2619 137.092 43.2421C131.032 43.2421 128.012 39.8606 128.012 33.0976V28.369V22.9497H135.939V32.809ZM127.141 14.0128H118.776V18.0458C118.776 20.264 120.591 22.0786 122.809 22.0786H127.141V14.0128Z" fill="#FEFEFE"/>
<path fill-rule="evenodd" clip-rule="evenodd" d="M145.2 22.0786H135.939H134.494H128.012V16.2751V14.0128V4.72681H131.975C134.155 4.72681 135.939 6.51036 135.939 8.68989V14.0128H141.167C143.386 14.0128 145.2 15.8276 145.2 18.0456V22.0786Z" fill="#F03D69"/>
</svg>
